<mxfile host="app.diagrams.net" modified="2021-01-06T17:10:05.851Z" agent="5.0 (Windows NT 10.0; Win64; x64) AppleWebKit/537.36 (KHTML, like Gecko) Chrome/86.0.4240.198 Safari/537.36" etag="QeyumVbmR1YHMzfKi_mi" version="14.1.8" type="github" pages="3">
  <diagram name="Classes-Modelo" id="c4acf3e9-155e-7222-9cf6-157b1a14988f">
    <mxGraphModel dx="1621" dy="449" grid="1" gridSize="10" guides="1" tooltips="1" connect="1" arrows="1" fold="1" page="1" pageScale="1" pageWidth="850" pageHeight="1100" background="#ffffff" math="0" shadow="0">
      <root>
        <mxCell id="0" />
        <mxCell id="1" parent="0" />
        <mxCell id="17acba5748e5396b-1" value="frame" style="shape=umlFrame;whiteSpace=wrap;html=1;rounded=0;shadow=0;comic=0;labelBackgroundColor=none;strokeWidth=1;fontFamily=Verdana;fontSize=10;align=center;" parent="1" vertex="1">
          <mxGeometry x="-60" y="10" width="820" height="1060" as="geometry" />
        </mxCell>
        <mxCell id="17acba5748e5396b-20" value="Furo" style="swimlane;html=1;fontStyle=0;childLayout=stackLayout;horizontal=1;startSize=26;fillColor=none;horizontalStack=0;resizeParent=1;resizeLast=0;collapsible=1;marginBottom=0;swimlaneFillColor=#ffffff;rounded=0;shadow=0;comic=0;labelBackgroundColor=none;strokeWidth=1;fontFamily=Verdana;fontSize=10;align=center;" parent="1" vertex="1">
          <mxGeometry x="90" y="42" width="160" height="110" as="geometry" />
        </mxCell>
        <mxCell id="17acba5748e5396b-24" value="+ nome&lt;br&gt;+ coordenada_x&lt;br&gt;+ coordenada_Y&lt;br&gt;+ cota_boca&lt;br&gt;+ profundidade" style="text;html=1;strokeColor=none;fillColor=none;align=left;verticalAlign=top;spacingLeft=4;spacingRight=4;whiteSpace=wrap;overflow=hidden;rotatable=0;points=[[0,0.5],[1,0.5]];portConstraint=eastwest;" parent="17acba5748e5396b-20" vertex="1">
          <mxGeometry y="26" width="160" height="84" as="geometry" />
        </mxCell>
        <mxCell id="5d2195bd80daf111-35" style="edgeStyle=orthogonalEdgeStyle;rounded=0;html=1;dashed=1;labelBackgroundColor=none;startFill=0;endArrow=open;endFill=0;endSize=10;fontFamily=Verdana;fontSize=10;" parent="1" edge="1">
          <mxGeometry relative="1" as="geometry">
            <Array as="points">
              <mxPoint x="545" y="970" />
              <mxPoint x="545" y="970" />
            </Array>
            <mxPoint x="545" y="1004" as="targetPoint" />
          </mxGeometry>
        </mxCell>
        <mxCell id="5d2195bd80daf111-34" style="edgeStyle=orthogonalEdgeStyle;rounded=0;html=1;dashed=1;labelBackgroundColor=none;startFill=0;endArrow=open;endFill=0;endSize=10;fontFamily=Verdana;fontSize=10;" parent="1" edge="1">
          <mxGeometry relative="1" as="geometry">
            <Array as="points">
              <mxPoint x="410" y="1029" />
              <mxPoint x="410" y="1029" />
            </Array>
            <mxPoint x="490" y="1029" as="targetPoint" />
          </mxGeometry>
        </mxCell>
        <mxCell id="C6Z6rODnfXY2d_j--N0c-7" style="edgeStyle=orthogonalEdgeStyle;rounded=0;orthogonalLoop=1;jettySize=auto;html=1;exitX=0.5;exitY=1;exitDx=0;exitDy=0;entryX=0.5;entryY=0;entryDx=0;entryDy=0;" parent="1" source="5d2195bd80daf111-18" target="C6Z6rODnfXY2d_j--N0c-3" edge="1">
          <mxGeometry relative="1" as="geometry" />
        </mxCell>
        <mxCell id="5d2195bd80daf111-18" value="&lt;p style=&quot;margin: 0px ; margin-top: 4px ; text-align: center&quot;&gt;&lt;b&gt;EntradaFuros&lt;/b&gt;&lt;/p&gt;&lt;hr size=&quot;1&quot;&gt;&lt;p style=&quot;margin: 0px ; margin-left: 4px&quot;&gt;+ identificação&lt;br&gt;+ num_colunas&lt;/p&gt;&lt;p style=&quot;margin: 0px ; margin-left: 4px&quot;&gt;+ nome_colunas&lt;/p&gt;&lt;p style=&quot;margin: 0px ; margin-left: 4px&quot;&gt;+ nome_furo&lt;/p&gt;" style="verticalAlign=top;align=left;overflow=fill;fontSize=12;fontFamily=Helvetica;html=1;rounded=0;shadow=0;comic=0;labelBackgroundColor=none;strokeWidth=1" parent="1" vertex="1">
          <mxGeometry x="380" y="42" width="190" height="103" as="geometry" />
        </mxCell>
        <mxCell id="C6Z6rODnfXY2d_j--N0c-2" style="edgeStyle=orthogonalEdgeStyle;rounded=0;orthogonalLoop=1;jettySize=auto;html=1;exitX=1;exitY=0.5;exitDx=0;exitDy=0;entryX=0.011;entryY=0.66;entryDx=0;entryDy=0;entryPerimeter=0;" parent="1" source="17acba5748e5396b-24" target="5d2195bd80daf111-18" edge="1">
          <mxGeometry relative="1" as="geometry" />
        </mxCell>
        <mxCell id="C6Z6rODnfXY2d_j--N0c-3" value="Modelo&#xa;" style="swimlane;fontStyle=1;align=center;verticalAlign=top;childLayout=stackLayout;horizontal=1;startSize=26;horizontalStack=0;resizeParent=1;resizeParentMax=0;resizeLast=0;collapsible=1;marginBottom=0;" parent="1" vertex="1">
          <mxGeometry x="332.21" y="260" width="285.57" height="500" as="geometry" />
        </mxCell>
        <mxCell id="C6Z6rODnfXY2d_j--N0c-4" value="+ x_minimo&#xa;+ y_minimo&#xa;+ z_minimo&#xa;+ x_maximo&#xa;+ y_maximo&#xa;+ z_maximo&#xa;+ abertura_x&#xa;+ abertura_y&#xa;+ abertura_z&#xa;+ blocos_x&#xa;+ blocos_y&#xa;+ blocos_z&#xa;+ sub_blocos_x&#xa;+ sub_blocos_y&#xa;+ sub_blocos_z&#xa;+ dist_max&#xa;+ lado&#xa;+ dist_vert&#xa;+ altura&#xa;+ num_pontos&#xa;+ dist_med&#xa;+ min_bloco&#xa;+ max_bloco&#xa;+ met_calculo&#xa;+ poten_id&#xa;+ constante_em" style="text;strokeColor=none;fillColor=none;align=left;verticalAlign=top;spacingLeft=4;spacingRight=4;overflow=hidden;rotatable=0;points=[[0,0.5],[1,0.5]];portConstraint=eastwest;" parent="C6Z6rODnfXY2d_j--N0c-3" vertex="1">
          <mxGeometry y="26" width="285.57" height="394" as="geometry" />
        </mxCell>
        <mxCell id="C6Z6rODnfXY2d_j--N0c-5" value="" style="line;strokeWidth=1;fillColor=none;align=left;verticalAlign=middle;spacingTop=-1;spacingLeft=3;spacingRight=3;rotatable=0;labelPosition=right;points=[];portConstraint=eastwest;" parent="C6Z6rODnfXY2d_j--N0c-3" vertex="1">
          <mxGeometry y="420" width="285.57" height="8" as="geometry" />
        </mxCell>
        <mxCell id="C6Z6rODnfXY2d_j--N0c-6" value="+ gerar_modelo()&#xa;+ recortar_area()" style="text;strokeColor=none;fillColor=none;align=left;verticalAlign=top;spacingLeft=4;spacingRight=4;overflow=hidden;rotatable=0;points=[[0,0.5],[1,0.5]];portConstraint=eastwest;" parent="C6Z6rODnfXY2d_j--N0c-3" vertex="1">
          <mxGeometry y="428" width="285.57" height="72" as="geometry" />
        </mxCell>
      </root>
    </mxGraphModel>
  </diagram>
  <diagram id="1eDWYbJac1O-OvMwTvV3" name="Casos de Uso">
    <mxGraphModel dx="771" dy="1299" grid="1" gridSize="10" guides="1" tooltips="1" connect="1" arrows="1" fold="1" page="1" pageScale="1" pageWidth="1100" pageHeight="850" math="0" shadow="0">
      <root>
        <mxCell id="wt1WEG8j4BmYl2G6qrXp-0" />
        <mxCell id="wt1WEG8j4BmYl2G6qrXp-1" parent="wt1WEG8j4BmYl2G6qrXp-0" />
        <mxCell id="wt1WEG8j4BmYl2G6qrXp-5" value="" style="orthogonalLoop=1;jettySize=auto;html=1;" parent="wt1WEG8j4BmYl2G6qrXp-1" target="wt1WEG8j4BmYl2G6qrXp-4" edge="1">
          <mxGeometry relative="1" as="geometry">
            <mxPoint x="130" y="296" as="sourcePoint" />
          </mxGeometry>
        </mxCell>
        <mxCell id="wt1WEG8j4BmYl2G6qrXp-11" value="" style="orthogonalLoop=1;jettySize=auto;html=1;" parent="wt1WEG8j4BmYl2G6qrXp-1" source="wt1WEG8j4BmYl2G6qrXp-2" target="wt1WEG8j4BmYl2G6qrXp-10" edge="1">
          <mxGeometry relative="1" as="geometry" />
        </mxCell>
        <mxCell id="jiYsSKbfK0XnRyVLSb23-24" style="edgeStyle=none;orthogonalLoop=1;jettySize=auto;html=1;entryX=0.283;entryY=0.013;entryDx=0;entryDy=0;entryPerimeter=0;shadow=0;" parent="wt1WEG8j4BmYl2G6qrXp-1" source="wt1WEG8j4BmYl2G6qrXp-2" target="jiYsSKbfK0XnRyVLSb23-21" edge="1">
          <mxGeometry relative="1" as="geometry">
            <mxPoint x="140" y="360" as="sourcePoint" />
          </mxGeometry>
        </mxCell>
        <mxCell id="jiYsSKbfK0XnRyVLSb23-37" style="edgeStyle=none;orthogonalLoop=1;jettySize=auto;html=1;entryX=0.5;entryY=0;entryDx=0;entryDy=0;exitX=1;exitY=1;exitDx=0;exitDy=0;exitPerimeter=0;" parent="wt1WEG8j4BmYl2G6qrXp-1" source="wt1WEG8j4BmYl2G6qrXp-2" target="jiYsSKbfK0XnRyVLSb23-36" edge="1">
          <mxGeometry relative="1" as="geometry">
            <mxPoint x="110" y="360" as="sourcePoint" />
          </mxGeometry>
        </mxCell>
        <mxCell id="ADzhZnwPZ3p8ylf_Vw08-35" style="rounded=0;orthogonalLoop=1;jettySize=auto;html=1;entryX=0.5;entryY=0;entryDx=0;entryDy=0;shadow=0;" edge="1" parent="wt1WEG8j4BmYl2G6qrXp-1" source="wt1WEG8j4BmYl2G6qrXp-2" target="ADzhZnwPZ3p8ylf_Vw08-34">
          <mxGeometry relative="1" as="geometry" />
        </mxCell>
        <mxCell id="wt1WEG8j4BmYl2G6qrXp-2" value="Actor" style="shape=umlActor;verticalLabelPosition=bottom;verticalAlign=top;html=1;direction=east;" parent="wt1WEG8j4BmYl2G6qrXp-1" vertex="1">
          <mxGeometry x="90" y="260" width="40" height="80" as="geometry" />
        </mxCell>
        <mxCell id="wt1WEG8j4BmYl2G6qrXp-4" value="&lt;p style=&quot;line-height: 100%&quot;&gt;Abrir&lt;br&gt;Arquivo&amp;nbsp;&lt;br&gt;de Furos&lt;/p&gt;" style="ellipse;whiteSpace=wrap;html=1;verticalAlign=top;" parent="wt1WEG8j4BmYl2G6qrXp-1" vertex="1">
          <mxGeometry x="160" y="-80" width="120" height="80" as="geometry" />
        </mxCell>
        <mxCell id="wt1WEG8j4BmYl2G6qrXp-6" value="&lt;p style=&quot;line-height: 100%&quot;&gt;Recortar&lt;br&gt;área de&amp;nbsp;&lt;br&gt;interesse&lt;/p&gt;" style="ellipse;whiteSpace=wrap;html=1;verticalAlign=top;" parent="wt1WEG8j4BmYl2G6qrXp-1" vertex="1">
          <mxGeometry x="730" y="10" width="120" height="80" as="geometry" />
        </mxCell>
        <mxCell id="wt1WEG8j4BmYl2G6qrXp-8" value="&lt;p style=&quot;line-height: 100%&quot;&gt;Salvar&amp;nbsp;&lt;br&gt;desenho&amp;nbsp;&lt;br&gt;gerado&lt;/p&gt;" style="ellipse;whiteSpace=wrap;html=1;verticalAlign=top;" parent="wt1WEG8j4BmYl2G6qrXp-1" vertex="1">
          <mxGeometry x="1137.57" y="82" width="120" height="80" as="geometry" />
        </mxCell>
        <mxCell id="wt1WEG8j4BmYl2G6qrXp-10" value="&lt;p style=&quot;line-height: 100%&quot;&gt;Gerar&amp;nbsp;&lt;br&gt;modelo&lt;br&gt;tridimensional&lt;/p&gt;" style="ellipse;whiteSpace=wrap;html=1;verticalAlign=top;" parent="wt1WEG8j4BmYl2G6qrXp-1" vertex="1">
          <mxGeometry x="560" y="272" width="120" height="80" as="geometry" />
        </mxCell>
        <mxCell id="wt1WEG8j4BmYl2G6qrXp-12" value="&lt;p style=&quot;line-height: 100%&quot;&gt;Limpar&lt;br&gt;Tela&lt;/p&gt;" style="ellipse;whiteSpace=wrap;html=1;verticalAlign=top;" parent="wt1WEG8j4BmYl2G6qrXp-1" vertex="1">
          <mxGeometry x="1167.57" y="312" width="120" height="80" as="geometry" />
        </mxCell>
        <mxCell id="wt1WEG8j4BmYl2G6qrXp-14" value="&lt;p style=&quot;line-height: 100%&quot;&gt;Realizar&amp;nbsp;&lt;br&gt;deslocamento&lt;br&gt;relativo&lt;/p&gt;" style="ellipse;whiteSpace=wrap;html=1;verticalAlign=top;" parent="wt1WEG8j4BmYl2G6qrXp-1" vertex="1">
          <mxGeometry x="1167.57" y="412" width="120" height="80" as="geometry" />
        </mxCell>
        <mxCell id="jiYsSKbfK0XnRyVLSb23-0" value="" style="endArrow=block;dashed=1;endFill=0;endSize=12;html=1;entryX=0;entryY=0.5;entryDx=0;entryDy=0;" parent="wt1WEG8j4BmYl2G6qrXp-1" target="wt1WEG8j4BmYl2G6qrXp-8" edge="1">
          <mxGeometry width="160" relative="1" as="geometry">
            <mxPoint x="915" y="294" as="sourcePoint" />
            <mxPoint x="1027.57" y="412" as="targetPoint" />
          </mxGeometry>
        </mxCell>
        <mxCell id="jiYsSKbfK0XnRyVLSb23-1" value="&amp;lt;&amp;lt;extends&amp;gt;&amp;gt;" style="text;html=1;strokeColor=none;fillColor=none;align=center;verticalAlign=middle;whiteSpace=wrap;rotation=0;" parent="wt1WEG8j4BmYl2G6qrXp-1" vertex="1">
          <mxGeometry x="977.5699999999999" y="192" width="40" height="20" as="geometry" />
        </mxCell>
        <mxCell id="jiYsSKbfK0XnRyVLSb23-3" value="&lt;p style=&quot;line-height: 100%&quot;&gt;Acrescentar&amp;nbsp;&lt;br&gt;sondagens&lt;/p&gt;" style="ellipse;whiteSpace=wrap;html=1;verticalAlign=top;" parent="wt1WEG8j4BmYl2G6qrXp-1" vertex="1">
          <mxGeometry x="1157.57" y="212" width="120" height="80" as="geometry" />
        </mxCell>
        <mxCell id="jiYsSKbfK0XnRyVLSb23-4" value="" style="endArrow=block;dashed=1;endFill=0;endSize=12;html=1;entryX=0;entryY=0.375;entryDx=0;entryDy=0;entryPerimeter=0;exitX=1;exitY=0.5;exitDx=0;exitDy=0;" parent="wt1WEG8j4BmYl2G6qrXp-1" source="ADzhZnwPZ3p8ylf_Vw08-14" target="jiYsSKbfK0XnRyVLSb23-3" edge="1">
          <mxGeometry width="160" relative="1" as="geometry">
            <mxPoint x="917.5699999999999" y="312" as="sourcePoint" />
            <mxPoint x="1052.61" y="382" as="targetPoint" />
          </mxGeometry>
        </mxCell>
        <mxCell id="jiYsSKbfK0XnRyVLSb23-6" value="&amp;lt;&amp;lt;extends&amp;gt;&amp;gt;" style="text;html=1;strokeColor=none;fillColor=none;align=center;verticalAlign=middle;whiteSpace=wrap;rotation=0;" parent="wt1WEG8j4BmYl2G6qrXp-1" vertex="1">
          <mxGeometry x="1017.5699999999999" y="252" width="40" height="20" as="geometry" />
        </mxCell>
        <mxCell id="jiYsSKbfK0XnRyVLSb23-7" value="" style="endArrow=block;dashed=1;endFill=0;endSize=12;html=1;entryX=0.017;entryY=0.288;entryDx=0;entryDy=0;entryPerimeter=0;exitX=1;exitY=0.675;exitDx=0;exitDy=0;exitPerimeter=0;" parent="wt1WEG8j4BmYl2G6qrXp-1" source="ADzhZnwPZ3p8ylf_Vw08-14" target="wt1WEG8j4BmYl2G6qrXp-12" edge="1">
          <mxGeometry width="160" relative="1" as="geometry">
            <mxPoint x="914.5699999999999" y="326" as="sourcePoint" />
            <mxPoint x="1097.57" y="467" as="targetPoint" />
          </mxGeometry>
        </mxCell>
        <mxCell id="jiYsSKbfK0XnRyVLSb23-8" value="&amp;lt;&amp;lt;extends&amp;gt;&amp;gt;" style="text;html=1;strokeColor=none;fillColor=none;align=center;verticalAlign=middle;whiteSpace=wrap;rotation=0;" parent="wt1WEG8j4BmYl2G6qrXp-1" vertex="1">
          <mxGeometry x="1057.57" y="302" width="40" height="20" as="geometry" />
        </mxCell>
        <mxCell id="jiYsSKbfK0XnRyVLSb23-12" value="" style="endArrow=block;dashed=1;endFill=0;endSize=12;html=1;entryX=0.017;entryY=0.275;entryDx=0;entryDy=0;exitX=0.942;exitY=0.788;exitDx=0;exitDy=0;exitPerimeter=0;entryPerimeter=0;" parent="wt1WEG8j4BmYl2G6qrXp-1" source="ADzhZnwPZ3p8ylf_Vw08-14" target="wt1WEG8j4BmYl2G6qrXp-14" edge="1">
          <mxGeometry width="160" relative="1" as="geometry">
            <mxPoint x="907.6099999999999" y="332" as="sourcePoint" />
            <mxPoint x="1017.5699999999999" y="606.76" as="targetPoint" />
          </mxGeometry>
        </mxCell>
        <mxCell id="jiYsSKbfK0XnRyVLSb23-13" value="&amp;lt;&amp;lt;extends&amp;gt;&amp;gt;" style="text;html=1;strokeColor=none;fillColor=none;align=center;verticalAlign=middle;whiteSpace=wrap;rotation=0;" parent="wt1WEG8j4BmYl2G6qrXp-1" vertex="1">
          <mxGeometry x="1037.57" y="362" width="40" height="20" as="geometry" />
        </mxCell>
        <mxCell id="jiYsSKbfK0XnRyVLSb23-18" value="&lt;p style=&quot;line-height: 100%&quot;&gt;Visualizar&lt;br&gt;diagramas de&lt;br&gt;cercas&lt;/p&gt;" style="ellipse;whiteSpace=wrap;html=1;verticalAlign=top;" parent="wt1WEG8j4BmYl2G6qrXp-1" vertex="1">
          <mxGeometry x="1157.57" y="522" width="120" height="80" as="geometry" />
        </mxCell>
        <mxCell id="jiYsSKbfK0XnRyVLSb23-19" value="" style="endArrow=block;dashed=1;endFill=0;endSize=12;html=1;entryX=0;entryY=0;entryDx=0;entryDy=0;exitX=1;exitY=1;exitDx=0;exitDy=0;" parent="wt1WEG8j4BmYl2G6qrXp-1" source="ADzhZnwPZ3p8ylf_Vw08-14" target="jiYsSKbfK0XnRyVLSb23-18" edge="1">
          <mxGeometry width="160" relative="1" as="geometry">
            <mxPoint x="899.9964068711929" y="340.28427124746213" as="sourcePoint" />
            <mxPoint x="847.5699999999999" y="626.76" as="targetPoint" />
          </mxGeometry>
        </mxCell>
        <mxCell id="jiYsSKbfK0XnRyVLSb23-20" value="&amp;lt;&amp;lt;extends&amp;gt;&amp;gt;" style="text;html=1;strokeColor=none;fillColor=none;align=center;verticalAlign=middle;whiteSpace=wrap;rotation=0;" parent="wt1WEG8j4BmYl2G6qrXp-1" vertex="1">
          <mxGeometry x="620" y="620" width="40" height="20" as="geometry" />
        </mxCell>
        <mxCell id="jiYsSKbfK0XnRyVLSb23-21" value="&lt;p style=&quot;line-height: 100%&quot;&gt;Calcular&amp;nbsp;&lt;br&gt;Variogramas&lt;br&gt;Experimentais&lt;/p&gt;" style="ellipse;whiteSpace=wrap;html=1;verticalAlign=top;" parent="wt1WEG8j4BmYl2G6qrXp-1" vertex="1">
          <mxGeometry x="480" y="580" width="120" height="80" as="geometry" />
        </mxCell>
        <mxCell id="jiYsSKbfK0XnRyVLSb23-25" value="&lt;p style=&quot;line-height: 100%&quot;&gt;Gerar&amp;nbsp;&lt;br&gt;Modelos&lt;br&gt;Experimentais&lt;/p&gt;" style="ellipse;whiteSpace=wrap;html=1;verticalAlign=top;" parent="wt1WEG8j4BmYl2G6qrXp-1" vertex="1">
          <mxGeometry x="660" y="660" width="120" height="80" as="geometry" />
        </mxCell>
        <mxCell id="jiYsSKbfK0XnRyVLSb23-26" value="" style="endArrow=block;dashed=1;endFill=0;endSize=12;html=1;entryX=0.333;entryY=0;entryDx=0;entryDy=0;entryPerimeter=0;" parent="wt1WEG8j4BmYl2G6qrXp-1" source="jiYsSKbfK0XnRyVLSb23-21" target="jiYsSKbfK0XnRyVLSb23-25" edge="1">
          <mxGeometry width="160" relative="1" as="geometry">
            <mxPoint x="80.03999999999996" y="640" as="sourcePoint" />
            <mxPoint x="80" y="769.76" as="targetPoint" />
          </mxGeometry>
        </mxCell>
        <mxCell id="jiYsSKbfK0XnRyVLSb23-30" value="" style="endArrow=block;dashed=1;endFill=0;endSize=12;html=1;entryX=0.033;entryY=0.313;entryDx=0;entryDy=0;exitX=1;exitY=0.5;exitDx=0;exitDy=0;entryPerimeter=0;" parent="wt1WEG8j4BmYl2G6qrXp-1" target="jiYsSKbfK0XnRyVLSb23-34" edge="1" source="jiYsSKbfK0XnRyVLSb23-25">
          <mxGeometry width="160" relative="1" as="geometry">
            <mxPoint x="200" y="880" as="sourcePoint" />
            <mxPoint x="270" y="920" as="targetPoint" />
          </mxGeometry>
        </mxCell>
        <mxCell id="jiYsSKbfK0XnRyVLSb23-31" value="&amp;lt;&amp;lt;extends&amp;gt;&amp;gt;" style="text;html=1;strokeColor=none;fillColor=none;align=center;verticalAlign=middle;whiteSpace=wrap;rotation=0;" parent="wt1WEG8j4BmYl2G6qrXp-1" vertex="1">
          <mxGeometry x="820" y="690" width="40" height="20" as="geometry" />
        </mxCell>
        <mxCell id="jiYsSKbfK0XnRyVLSb23-34" value="&lt;p style=&quot;line-height: 100%&quot;&gt;Salvar gráficos&lt;br&gt;experimentais&lt;/p&gt;" style="ellipse;whiteSpace=wrap;html=1;verticalAlign=top;" parent="wt1WEG8j4BmYl2G6qrXp-1" vertex="1">
          <mxGeometry x="909.9999999999999" y="700" width="120" height="80" as="geometry" />
        </mxCell>
        <mxCell id="jiYsSKbfK0XnRyVLSb23-36" value="&lt;p style=&quot;line-height: 100%&quot;&gt;Fundir&lt;br&gt;Modelos&lt;/p&gt;" style="ellipse;whiteSpace=wrap;html=1;verticalAlign=top;" parent="wt1WEG8j4BmYl2G6qrXp-1" vertex="1">
          <mxGeometry x="200" y="590" width="120" height="80" as="geometry" />
        </mxCell>
        <mxCell id="jgNMXidKImF2bmy32gOK-6" value="&amp;lt;&amp;lt;extends&amp;gt;&amp;gt;" style="text;html=1;strokeColor=none;fillColor=none;align=center;verticalAlign=middle;whiteSpace=wrap;rotation=0;" vertex="1" parent="wt1WEG8j4BmYl2G6qrXp-1">
          <mxGeometry x="1037.57" y="417" width="40" height="20" as="geometry" />
        </mxCell>
        <mxCell id="ADzhZnwPZ3p8ylf_Vw08-0" value="" style="endArrow=block;dashed=1;endFill=0;endSize=12;html=1;entryX=0.25;entryY=1;entryDx=0;entryDy=0;exitX=1;exitY=0;exitDx=0;exitDy=0;entryPerimeter=0;shadow=1;" edge="1" parent="wt1WEG8j4BmYl2G6qrXp-1" source="jiYsSKbfK0XnRyVLSb23-36" target="wt1WEG8j4BmYl2G6qrXp-10">
          <mxGeometry width="160" relative="1" as="geometry">
            <mxPoint x="157" y="582" as="sourcePoint" />
            <mxPoint x="380" y="410" as="targetPoint" />
          </mxGeometry>
        </mxCell>
        <mxCell id="ADzhZnwPZ3p8ylf_Vw08-1" value="&amp;lt;&amp;lt;extends&amp;gt;&amp;gt;" style="text;html=1;strokeColor=none;fillColor=none;align=center;verticalAlign=middle;whiteSpace=wrap;rotation=0;" vertex="1" parent="wt1WEG8j4BmYl2G6qrXp-1">
          <mxGeometry x="360" y="510" width="40" height="20" as="geometry" />
        </mxCell>
        <mxCell id="ADzhZnwPZ3p8ylf_Vw08-2" value="" style="endArrow=block;dashed=1;endFill=0;endSize=12;html=1;entryX=0.042;entryY=0.713;entryDx=0;entryDy=0;exitX=1;exitY=0.5;exitDx=0;exitDy=0;entryPerimeter=0;" edge="1" parent="wt1WEG8j4BmYl2G6qrXp-1" source="jiYsSKbfK0XnRyVLSb23-36" target="jiYsSKbfK0XnRyVLSb23-21">
          <mxGeometry width="160" relative="1" as="geometry">
            <mxPoint x="167" y="592" as="sourcePoint" />
            <mxPoint x="390" y="360" as="targetPoint" />
          </mxGeometry>
        </mxCell>
        <mxCell id="ADzhZnwPZ3p8ylf_Vw08-3" value="&amp;lt;&amp;lt;extends&amp;gt;&amp;gt;" style="text;html=1;strokeColor=none;fillColor=none;align=center;verticalAlign=middle;whiteSpace=wrap;rotation=0;" vertex="1" parent="wt1WEG8j4BmYl2G6qrXp-1">
          <mxGeometry x="380" y="610" width="40" height="20" as="geometry" />
        </mxCell>
        <mxCell id="ADzhZnwPZ3p8ylf_Vw08-5" value="" style="endArrow=block;dashed=1;endFill=0;endSize=12;html=1;" edge="1" parent="wt1WEG8j4BmYl2G6qrXp-1" source="ADzhZnwPZ3p8ylf_Vw08-24" target="wt1WEG8j4BmYl2G6qrXp-10">
          <mxGeometry width="160" relative="1" as="geometry">
            <mxPoint x="283" y="40" as="sourcePoint" />
            <mxPoint x="420" y="124" as="targetPoint" />
          </mxGeometry>
        </mxCell>
        <mxCell id="ADzhZnwPZ3p8ylf_Vw08-6" value="&amp;lt;&amp;lt;extends&amp;gt;&amp;gt;" style="text;html=1;strokeColor=none;fillColor=none;align=center;verticalAlign=middle;whiteSpace=wrap;rotation=0;" vertex="1" parent="wt1WEG8j4BmYl2G6qrXp-1">
          <mxGeometry x="430" y="372" width="40" height="20" as="geometry" />
        </mxCell>
        <mxCell id="ADzhZnwPZ3p8ylf_Vw08-8" value="&amp;lt;&amp;lt;extends&amp;gt;&amp;gt;" style="text;html=1;strokeColor=none;fillColor=none;align=center;verticalAlign=middle;whiteSpace=wrap;rotation=0;" vertex="1" parent="wt1WEG8j4BmYl2G6qrXp-1">
          <mxGeometry x="670" y="142" width="40" height="20" as="geometry" />
        </mxCell>
        <mxCell id="ADzhZnwPZ3p8ylf_Vw08-14" value="&lt;p style=&quot;line-height: 100%&quot;&gt;Desenhar&amp;nbsp;&lt;br&gt;modelo&lt;br&gt;tridimensional&lt;/p&gt;" style="ellipse;whiteSpace=wrap;html=1;verticalAlign=top;" vertex="1" parent="wt1WEG8j4BmYl2G6qrXp-1">
          <mxGeometry x="800" y="272" width="120" height="80" as="geometry" />
        </mxCell>
        <mxCell id="ADzhZnwPZ3p8ylf_Vw08-15" value="" style="endArrow=block;dashed=1;endFill=0;endSize=12;html=1;exitX=0.708;exitY=-0.012;exitDx=0;exitDy=0;exitPerimeter=0;" edge="1" parent="wt1WEG8j4BmYl2G6qrXp-1" source="wt1WEG8j4BmYl2G6qrXp-10" target="wt1WEG8j4BmYl2G6qrXp-6">
          <mxGeometry width="160" relative="1" as="geometry">
            <mxPoint x="523" y="230" as="sourcePoint" />
            <mxPoint x="425" y="269.03999999999996" as="targetPoint" />
          </mxGeometry>
        </mxCell>
        <mxCell id="ADzhZnwPZ3p8ylf_Vw08-16" value="" style="endArrow=block;dashed=1;endFill=0;endSize=12;html=1;entryX=0;entryY=0.5;entryDx=0;entryDy=0;exitX=1;exitY=0.5;exitDx=0;exitDy=0;" edge="1" parent="wt1WEG8j4BmYl2G6qrXp-1" source="wt1WEG8j4BmYl2G6qrXp-10" target="ADzhZnwPZ3p8ylf_Vw08-14">
          <mxGeometry width="160" relative="1" as="geometry">
            <mxPoint x="490" y="340" as="sourcePoint" />
            <mxPoint x="559.3854584914336" y="89.78453572113033" as="targetPoint" />
          </mxGeometry>
        </mxCell>
        <mxCell id="ADzhZnwPZ3p8ylf_Vw08-17" value="&amp;lt;&amp;lt;extends&amp;gt;&amp;gt;" style="text;html=1;strokeColor=none;fillColor=none;align=center;verticalAlign=middle;whiteSpace=wrap;rotation=0;" vertex="1" parent="wt1WEG8j4BmYl2G6qrXp-1">
          <mxGeometry x="710" y="290" width="40" height="20" as="geometry" />
        </mxCell>
        <mxCell id="ADzhZnwPZ3p8ylf_Vw08-18" value="&lt;p style=&quot;line-height: 100%&quot;&gt;Visualizar&lt;br&gt;desenho&amp;nbsp;&lt;br&gt;gerado&lt;/p&gt;" style="ellipse;whiteSpace=wrap;html=1;verticalAlign=top;" vertex="1" parent="wt1WEG8j4BmYl2G6qrXp-1">
          <mxGeometry x="1049.07" width="120" height="80" as="geometry" />
        </mxCell>
        <mxCell id="ADzhZnwPZ3p8ylf_Vw08-19" value="" style="endArrow=block;dashed=1;endFill=0;endSize=12;html=1;exitX=0.65;exitY=-0.012;exitDx=0;exitDy=0;exitPerimeter=0;" edge="1" parent="wt1WEG8j4BmYl2G6qrXp-1" target="ADzhZnwPZ3p8ylf_Vw08-18" source="ADzhZnwPZ3p8ylf_Vw08-14">
          <mxGeometry width="160" relative="1" as="geometry">
            <mxPoint x="626.0699999999999" y="210" as="sourcePoint" />
            <mxPoint x="739.0699999999999" y="328" as="targetPoint" />
          </mxGeometry>
        </mxCell>
        <mxCell id="ADzhZnwPZ3p8ylf_Vw08-20" value="&amp;lt;&amp;lt;extends&amp;gt;&amp;gt;" style="text;html=1;strokeColor=none;fillColor=none;align=center;verticalAlign=middle;whiteSpace=wrap;rotation=0;" vertex="1" parent="wt1WEG8j4BmYl2G6qrXp-1">
          <mxGeometry x="929.9999999999999" y="152" width="40" height="20" as="geometry" />
        </mxCell>
        <mxCell id="ADzhZnwPZ3p8ylf_Vw08-24" value="&lt;p style=&quot;line-height: 100%&quot;&gt;Regularizar&lt;/p&gt;&lt;p style=&quot;line-height: 100%&quot;&gt;dados&lt;/p&gt;" style="ellipse;whiteSpace=wrap;html=1;verticalAlign=top;" vertex="1" parent="wt1WEG8j4BmYl2G6qrXp-1">
          <mxGeometry x="360" y="82" width="120" height="80" as="geometry" />
        </mxCell>
        <mxCell id="ADzhZnwPZ3p8ylf_Vw08-27" value="" style="endArrow=block;dashed=1;endFill=0;endSize=12;html=1;exitX=1;exitY=1;exitDx=0;exitDy=0;entryX=0.2;entryY=0.075;entryDx=0;entryDy=0;entryPerimeter=0;" edge="1" parent="wt1WEG8j4BmYl2G6qrXp-1" source="wt1WEG8j4BmYl2G6qrXp-4" target="ADzhZnwPZ3p8ylf_Vw08-24">
          <mxGeometry width="160" relative="1" as="geometry">
            <mxPoint x="310" y="28.340000000000003" as="sourcePoint" />
            <mxPoint x="382.91592561204266" y="191.9957441514733" as="targetPoint" />
          </mxGeometry>
        </mxCell>
        <mxCell id="ADzhZnwPZ3p8ylf_Vw08-28" value="&amp;lt;&amp;lt;extends&amp;gt;&amp;gt;" style="text;html=1;strokeColor=none;fillColor=none;align=center;verticalAlign=middle;whiteSpace=wrap;rotation=0;" vertex="1" parent="wt1WEG8j4BmYl2G6qrXp-1">
          <mxGeometry x="330" y="20" width="40" height="20" as="geometry" />
        </mxCell>
        <mxCell id="ADzhZnwPZ3p8ylf_Vw08-29" value="" style="endArrow=block;dashed=1;endFill=0;endSize=12;html=1;entryX=0.5;entryY=0;entryDx=0;entryDy=0;" edge="1" parent="wt1WEG8j4BmYl2G6qrXp-1" target="jiYsSKbfK0XnRyVLSb23-21">
          <mxGeometry width="160" relative="1" as="geometry">
            <mxPoint x="410" y="163" as="sourcePoint" />
            <mxPoint x="397.57" y="183.72" as="targetPoint" />
          </mxGeometry>
        </mxCell>
        <mxCell id="ADzhZnwPZ3p8ylf_Vw08-30" value="" style="endArrow=block;dashed=1;endFill=0;endSize=12;html=1;exitX=0.5;exitY=0;exitDx=0;exitDy=0;entryX=0.625;entryY=0.975;entryDx=0;entryDy=0;entryPerimeter=0;" edge="1" parent="wt1WEG8j4BmYl2G6qrXp-1" source="jiYsSKbfK0XnRyVLSb23-25" target="wt1WEG8j4BmYl2G6qrXp-10">
          <mxGeometry width="160" relative="1" as="geometry">
            <mxPoint x="710" y="550" as="sourcePoint" />
            <mxPoint x="640" y="490" as="targetPoint" />
          </mxGeometry>
        </mxCell>
        <mxCell id="ADzhZnwPZ3p8ylf_Vw08-31" value="&amp;lt;&amp;lt;extends&amp;gt;&amp;gt;" style="text;html=1;strokeColor=none;fillColor=none;align=center;verticalAlign=middle;whiteSpace=wrap;rotation=0;" vertex="1" parent="wt1WEG8j4BmYl2G6qrXp-1">
          <mxGeometry x="690" y="510" width="40" height="20" as="geometry" />
        </mxCell>
        <mxCell id="ADzhZnwPZ3p8ylf_Vw08-32" value="&amp;lt;&amp;lt;extends&amp;gt;&amp;gt;" style="text;html=1;strokeColor=none;fillColor=none;align=center;verticalAlign=middle;whiteSpace=wrap;rotation=0;" vertex="1" parent="wt1WEG8j4BmYl2G6qrXp-1">
          <mxGeometry x="530" y="200" width="40" height="20" as="geometry" />
        </mxCell>
        <mxCell id="ADzhZnwPZ3p8ylf_Vw08-34" value="&lt;p style=&quot;line-height: 100%&quot;&gt;&lt;/p&gt;&lt;div&gt;&lt;span&gt;Salvar Histórico&lt;/span&gt;&lt;/div&gt;&lt;div&gt;&lt;span&gt;de dados&lt;/span&gt;&lt;/div&gt;&lt;p&gt;&lt;/p&gt;" style="ellipse;whiteSpace=wrap;html=1;verticalAlign=top;align=center;" vertex="1" parent="wt1WEG8j4BmYl2G6qrXp-1">
          <mxGeometry x="100" y="700" width="120" height="80" as="geometry" />
        </mxCell>
        <mxCell id="ADzhZnwPZ3p8ylf_Vw08-39" value="" style="endArrow=block;dashed=1;endFill=0;endSize=12;html=1;exitX=0.6;exitY=1.05;exitDx=0;exitDy=0;exitPerimeter=0;entryX=0.308;entryY=0.05;entryDx=0;entryDy=0;entryPerimeter=0;" edge="1" parent="wt1WEG8j4BmYl2G6qrXp-1" source="wt1WEG8j4BmYl2G6qrXp-6" target="ADzhZnwPZ3p8ylf_Vw08-14">
          <mxGeometry width="160" relative="1" as="geometry">
            <mxPoint x="654.96" y="281.03999999999996" as="sourcePoint" />
            <mxPoint x="800" y="180" as="targetPoint" />
          </mxGeometry>
        </mxCell>
        <mxCell id="ADzhZnwPZ3p8ylf_Vw08-40" value="&amp;lt;&amp;lt;extends&amp;gt;&amp;gt;" style="text;html=1;strokeColor=none;fillColor=none;align=center;verticalAlign=middle;whiteSpace=wrap;rotation=0;" vertex="1" parent="wt1WEG8j4BmYl2G6qrXp-1">
          <mxGeometry x="840" y="162" width="40" height="20" as="geometry" />
        </mxCell>
      </root>
    </mxGraphModel>
  </diagram>
  <diagram id="bpvwRCxJYaJNyarx6e42" name="MVC">
    <mxGraphModel dx="771" dy="449" grid="1" gridSize="10" guides="1" tooltips="1" connect="1" arrows="1" fold="1" page="1" pageScale="1" pageWidth="1100" pageHeight="850" math="0" shadow="0">
      <root>
        <mxCell id="Djli0VLdjuVr_oW39nnG-0" />
        <mxCell id="Djli0VLdjuVr_oW39nnG-1" parent="Djli0VLdjuVr_oW39nnG-0" />
        <mxCell id="Djli0VLdjuVr_oW39nnG-10" value="" style="group" parent="Djli0VLdjuVr_oW39nnG-1" vertex="1" connectable="0">
          <mxGeometry x="160" y="460" width="160" height="180" as="geometry" />
        </mxCell>
        <mxCell id="Djli0VLdjuVr_oW39nnG-5" value="" style="rounded=0;whiteSpace=wrap;html=1;align=center;" parent="Djli0VLdjuVr_oW39nnG-10" vertex="1">
          <mxGeometry width="160" height="130" as="geometry" />
        </mxCell>
        <mxCell id="Djli0VLdjuVr_oW39nnG-6" value="&lt;b&gt;Controlador&lt;/b&gt;" style="text;html=1;strokeColor=none;fillColor=#CCCCCC;align=center;verticalAlign=middle;whiteSpace=wrap;rounded=0;" parent="Djli0VLdjuVr_oW39nnG-10" vertex="1">
          <mxGeometry width="160" height="40" as="geometry" />
        </mxCell>
        <mxCell id="Djli0VLdjuVr_oW39nnG-35" value="&lt;div&gt;&lt;font style=&quot;font-size: 11px&quot;&gt;Processamento de solicitação HTTP&lt;/font&gt;&lt;/div&gt;" style="text;html=1;strokeColor=none;fillColor=none;align=left;verticalAlign=middle;whiteSpace=wrap;rounded=0;" parent="Djli0VLdjuVr_oW39nnG-10" vertex="1">
          <mxGeometry y="40" width="160" height="30" as="geometry" />
        </mxCell>
        <mxCell id="Djli0VLdjuVr_oW39nnG-36" value="&lt;div&gt;&lt;font style=&quot;font-size: 11px&quot;&gt;Lógica específica de aplicação&lt;/font&gt;&lt;/div&gt;" style="text;html=1;strokeColor=none;fillColor=none;align=left;verticalAlign=middle;whiteSpace=wrap;rounded=0;" parent="Djli0VLdjuVr_oW39nnG-10" vertex="1">
          <mxGeometry y="70" width="160" height="30" as="geometry" />
        </mxCell>
        <mxCell id="Djli0VLdjuVr_oW39nnG-37" value="&lt;div&gt;&lt;font style=&quot;font-size: 11px&quot;&gt;Validação de dados&lt;/font&gt;&lt;/div&gt;" style="text;html=1;strokeColor=none;fillColor=none;align=left;verticalAlign=middle;whiteSpace=wrap;rounded=0;" parent="Djli0VLdjuVr_oW39nnG-10" vertex="1">
          <mxGeometry y="100" width="160" height="30" as="geometry" />
        </mxCell>
        <mxCell id="Djli0VLdjuVr_oW39nnG-11" value="" style="group" parent="Djli0VLdjuVr_oW39nnG-1" vertex="1" connectable="0">
          <mxGeometry x="530" y="460" width="160" height="180" as="geometry" />
        </mxCell>
        <mxCell id="Djli0VLdjuVr_oW39nnG-12" value="" style="rounded=0;whiteSpace=wrap;html=1;align=center;" parent="Djli0VLdjuVr_oW39nnG-11" vertex="1">
          <mxGeometry width="160" height="130" as="geometry" />
        </mxCell>
        <mxCell id="Djli0VLdjuVr_oW39nnG-13" value="&lt;b&gt;Visão&lt;/b&gt;" style="text;html=1;strokeColor=none;fillColor=#CCCCCC;align=center;verticalAlign=middle;whiteSpace=wrap;rounded=0;" parent="Djli0VLdjuVr_oW39nnG-11" vertex="1">
          <mxGeometry width="160" height="40" as="geometry" />
        </mxCell>
        <mxCell id="Djli0VLdjuVr_oW39nnG-38" value="Página Dinâmica" style="text;html=1;strokeColor=none;fillColor=none;align=left;verticalAlign=middle;whiteSpace=wrap;rounded=0;" parent="Djli0VLdjuVr_oW39nnG-11" vertex="1">
          <mxGeometry y="40" width="160" height="20" as="geometry" />
        </mxCell>
        <mxCell id="Djli0VLdjuVr_oW39nnG-39" value="Geração" style="text;html=1;strokeColor=none;fillColor=none;align=left;verticalAlign=middle;whiteSpace=wrap;rounded=0;" parent="Djli0VLdjuVr_oW39nnG-11" vertex="1">
          <mxGeometry y="60" width="60" height="20" as="geometry" />
        </mxCell>
        <mxCell id="Djli0VLdjuVr_oW39nnG-40" value="Gerenciamento de formulários" style="text;html=1;strokeColor=none;fillColor=none;align=left;verticalAlign=middle;whiteSpace=wrap;rounded=0;" parent="Djli0VLdjuVr_oW39nnG-11" vertex="1">
          <mxGeometry y="90" width="160" height="20" as="geometry" />
        </mxCell>
        <mxCell id="Djli0VLdjuVr_oW39nnG-14" value="" style="group" parent="Djli0VLdjuVr_oW39nnG-1" vertex="1" connectable="0">
          <mxGeometry x="350" y="690" width="160" height="180" as="geometry" />
        </mxCell>
        <mxCell id="Djli0VLdjuVr_oW39nnG-15" value="" style="rounded=0;whiteSpace=wrap;html=1;align=center;" parent="Djli0VLdjuVr_oW39nnG-14" vertex="1">
          <mxGeometry width="160" height="100" as="geometry" />
        </mxCell>
        <mxCell id="Djli0VLdjuVr_oW39nnG-16" value="&lt;b&gt;Modelo&lt;/b&gt;" style="text;html=1;strokeColor=none;fillColor=#CCCCCC;align=center;verticalAlign=middle;whiteSpace=wrap;rounded=0;" parent="Djli0VLdjuVr_oW39nnG-14" vertex="1">
          <mxGeometry width="160" height="40" as="geometry" />
        </mxCell>
        <mxCell id="Djli0VLdjuVr_oW39nnG-41" value="Lógica de Dados" style="text;html=1;strokeColor=none;fillColor=none;align=left;verticalAlign=middle;whiteSpace=wrap;rounded=0;" parent="Djli0VLdjuVr_oW39nnG-14" vertex="1">
          <mxGeometry y="40" width="160" height="20" as="geometry" />
        </mxCell>
        <mxCell id="Djli0VLdjuVr_oW39nnG-42" value="Banco de Dados" style="text;html=1;strokeColor=none;fillColor=none;align=left;verticalAlign=middle;whiteSpace=wrap;rounded=0;" parent="Djli0VLdjuVr_oW39nnG-14" vertex="1">
          <mxGeometry y="60" width="160" height="20" as="geometry" />
        </mxCell>
        <mxCell id="Djli0VLdjuVr_oW39nnG-17" style="edgeStyle=orthogonalEdgeStyle;rounded=0;orthogonalLoop=1;jettySize=auto;html=1;exitX=0.5;exitY=1;exitDx=0;exitDy=0;entryX=0.006;entryY=0.572;entryDx=0;entryDy=0;entryPerimeter=0;" parent="Djli0VLdjuVr_oW39nnG-1" source="Djli0VLdjuVr_oW39nnG-5" target="Djli0VLdjuVr_oW39nnG-15" edge="1">
          <mxGeometry relative="1" as="geometry" />
        </mxCell>
        <mxCell id="Djli0VLdjuVr_oW39nnG-20" style="edgeStyle=orthogonalEdgeStyle;rounded=0;orthogonalLoop=1;jettySize=auto;html=1;exitX=1;exitY=0.5;exitDx=0;exitDy=0;entryX=0.5;entryY=1;entryDx=0;entryDy=0;" parent="Djli0VLdjuVr_oW39nnG-1" source="Djli0VLdjuVr_oW39nnG-15" target="Djli0VLdjuVr_oW39nnG-12" edge="1">
          <mxGeometry relative="1" as="geometry" />
        </mxCell>
        <mxCell id="Djli0VLdjuVr_oW39nnG-21" style="edgeStyle=orthogonalEdgeStyle;rounded=0;orthogonalLoop=1;jettySize=auto;html=1;exitX=1;exitY=0.5;exitDx=0;exitDy=0;entryX=0;entryY=0.5;entryDx=0;entryDy=0;" parent="Djli0VLdjuVr_oW39nnG-1" source="Djli0VLdjuVr_oW39nnG-5" target="Djli0VLdjuVr_oW39nnG-12" edge="1">
          <mxGeometry relative="1" as="geometry" />
        </mxCell>
        <mxCell id="Djli0VLdjuVr_oW39nnG-22" style="edgeStyle=orthogonalEdgeStyle;rounded=0;orthogonalLoop=1;jettySize=auto;html=1;exitX=0;exitY=0.75;exitDx=0;exitDy=0;entryX=1;entryY=0.75;entryDx=0;entryDy=0;" parent="Djli0VLdjuVr_oW39nnG-1" source="Djli0VLdjuVr_oW39nnG-12" target="Djli0VLdjuVr_oW39nnG-5" edge="1">
          <mxGeometry relative="1" as="geometry" />
        </mxCell>
        <mxCell id="Djli0VLdjuVr_oW39nnG-23" style="edgeStyle=orthogonalEdgeStyle;rounded=0;orthogonalLoop=1;jettySize=auto;html=1;exitX=0.75;exitY=1;exitDx=0;exitDy=0;entryX=1;entryY=0.75;entryDx=0;entryDy=0;" parent="Djli0VLdjuVr_oW39nnG-1" source="Djli0VLdjuVr_oW39nnG-12" target="Djli0VLdjuVr_oW39nnG-15" edge="1">
          <mxGeometry relative="1" as="geometry" />
        </mxCell>
        <mxCell id="Djli0VLdjuVr_oW39nnG-24" value="Eventos do Usuário" style="text;html=1;strokeColor=none;fillColor=none;align=center;verticalAlign=middle;whiteSpace=wrap;rounded=0;" parent="Djli0VLdjuVr_oW39nnG-1" vertex="1">
          <mxGeometry x="370" y="570" width="100" height="20" as="geometry" />
        </mxCell>
        <mxCell id="Djli0VLdjuVr_oW39nnG-25" value="Seleção de Visão" style="text;html=1;strokeColor=none;fillColor=none;align=center;verticalAlign=middle;whiteSpace=wrap;rounded=0;" parent="Djli0VLdjuVr_oW39nnG-1" vertex="1">
          <mxGeometry x="380" y="490" width="80" height="20" as="geometry" />
        </mxCell>
        <mxCell id="Djli0VLdjuVr_oW39nnG-26" value="Mudança de Estado" style="text;html=1;strokeColor=none;fillColor=none;align=center;verticalAlign=middle;whiteSpace=wrap;rounded=0;" parent="Djli0VLdjuVr_oW39nnG-1" vertex="1">
          <mxGeometry x="160" y="650" width="60" height="20" as="geometry" />
        </mxCell>
        <mxCell id="Djli0VLdjuVr_oW39nnG-27" value="Notificação de Mudança" style="text;html=1;strokeColor=none;fillColor=none;align=center;verticalAlign=middle;whiteSpace=wrap;rounded=0;" parent="Djli0VLdjuVr_oW39nnG-1" vertex="1">
          <mxGeometry x="530" y="710" width="70" height="20" as="geometry" />
        </mxCell>
        <mxCell id="Djli0VLdjuVr_oW39nnG-28" value="Consulta de Estado" style="text;html=1;strokeColor=none;fillColor=none;align=center;verticalAlign=middle;whiteSpace=wrap;rounded=0;" parent="Djli0VLdjuVr_oW39nnG-1" vertex="1">
          <mxGeometry x="670" y="730" width="70" height="20" as="geometry" />
        </mxCell>
        <mxCell id="Djli0VLdjuVr_oW39nnG-31" style="rounded=0;orthogonalLoop=1;jettySize=auto;html=1;exitX=0;exitY=1;exitDx=0;exitDy=0;entryX=0.5;entryY=0;entryDx=0;entryDy=0;" parent="Djli0VLdjuVr_oW39nnG-1" source="Djli0VLdjuVr_oW39nnG-29" target="Djli0VLdjuVr_oW39nnG-6" edge="1">
          <mxGeometry relative="1" as="geometry" />
        </mxCell>
        <mxCell id="Djli0VLdjuVr_oW39nnG-32" style="rounded=0;orthogonalLoop=1;jettySize=auto;html=1;exitX=0.5;exitY=0;exitDx=0;exitDy=0;entryX=0.898;entryY=0.798;entryDx=0;entryDy=0;entryPerimeter=0;" parent="Djli0VLdjuVr_oW39nnG-1" source="Djli0VLdjuVr_oW39nnG-13" target="Djli0VLdjuVr_oW39nnG-29" edge="1">
          <mxGeometry relative="1" as="geometry">
            <mxPoint x="510" y="310" as="targetPoint" />
          </mxGeometry>
        </mxCell>
        <mxCell id="Djli0VLdjuVr_oW39nnG-43" value="" style="group" parent="Djli0VLdjuVr_oW39nnG-1" vertex="1" connectable="0">
          <mxGeometry x="315" y="330" width="210" height="80" as="geometry" />
        </mxCell>
        <mxCell id="Djli0VLdjuVr_oW39nnG-29" value="" style="ellipse;whiteSpace=wrap;html=1;fillColor=#CCCCCC;" parent="Djli0VLdjuVr_oW39nnG-43" vertex="1">
          <mxGeometry width="210" height="80" as="geometry" />
        </mxCell>
        <mxCell id="Djli0VLdjuVr_oW39nnG-30" value="&lt;b&gt;Browser&lt;/b&gt;" style="text;html=1;strokeColor=none;fillColor=none;align=center;verticalAlign=middle;whiteSpace=wrap;rounded=0;" parent="Djli0VLdjuVr_oW39nnG-43" vertex="1">
          <mxGeometry x="85" y="30" width="40" height="20" as="geometry" />
        </mxCell>
      </root>
    </mxGraphModel>
  </diagram>
</mxfile>
